<?xml version="1.0" encoding="utf-8"?>
<!-- Generator: Adobe Illustrator 19.2.1, SVG Export Plug-In . SVG Version: 6.00 Build 0)  -->
<svg version="1.1" xmlns="http://www.w3.org/2000/svg" xmlns:xlink="http://www.w3.org/1999/xlink" x="0px" y="0px"
	 viewBox="0 0 760.2 440.6" style="enable-background:new 0 0 760.2 440.6;" xml:space="preserve">
<style type="text/css">
	.st0{fill:none;stroke:#FFFFFF;stroke-width:2;stroke-miterlimit:10;}
	.st1{fill:#5C7EE5;}
	.st2{fill:#5C7EE5;fill-opacity:0.4;}
</style>
<g id="Layer_1">
	<rect x="1" y="1" class="st0" width="758.2" height="438.6"/>
	<line class="st0" x1="402.6" y1="1" x2="402.6" y2="437.6"/>
	<line class="st0" x1="402.6" y1="291.7" x2="759.2" y2="291.7"/>
	<line class="st0" x1="402.6" y1="211.7" x2="1" y2="211.7"/>
	<line class="st0" x1="194.4" y1="211.7" x2="194.4" y2="1"/>
	<line class="st0" x1="590.3" y1="291.7" x2="590.3" y2="1"/>
	<line class="st0" x1="590.3" y1="119" x2="759.2" y2="119"/>
</g>
<g id="Ponits">
	<circle class="st1" cx="402.6" cy="168" r="5.8"/>
	<circle class="st1" cx="550.4" cy="291.7" r="5.8"/>
	<circle class="st1" cx="244.8" cy="211.7" r="5.8"/>
	<circle class="st1" cx="194.4" cy="92.1" r="5.8"/>
	<circle class="st2" cx="125.3" cy="150.4" r="5.8"/>
	<circle class="st1" cx="590.3" cy="158.4" r="5.8"/>
	<circle class="st1" cx="679.8" cy="119" r="5.8"/>
	<circle class="st2" cx="70.7" cy="70" r="5.8"/>
	<circle class="st2" cx="369.4" cy="30.8" r="5.8"/>
	<circle class="st2" cx="295.3" cy="55.3" r="5.8"/>
	<circle class="st2" cx="82.4" cy="372.7" r="5.8"/>
	<circle class="st2" cx="275.4" cy="300.9" r="5.8"/>
	<circle class="st2" cx="498.9" cy="340.4" r="5.8"/>
	<circle class="st2" cx="655.7" cy="381.8" r="5.8"/>
	<circle class="st2" cx="529.7" cy="208.7" r="5.8"/>
	<circle class="st2" cx="448" cy="119" r="5.8"/>
	<circle class="st2" cx="640.3" cy="32.6" r="5.8"/>
	<circle class="st2" cx="679.8" cy="32.6" r="5.8"/>
	<circle class="st2" cx="691.5" cy="164.2" r="5.8"/>
	<circle class="st2" cx="670.7" cy="229" r="5.8"/>
</g>
</svg>
