<?xml version="1.0" encoding="utf-8"?>
<!-- Generator: Adobe Illustrator 19.2.1, SVG Export Plug-In . SVG Version: 6.00 Build 0)  -->
<svg version="1.1" id="Planes" xmlns="http://www.w3.org/2000/svg" xmlns:xlink="http://www.w3.org/1999/xlink" x="0px" y="0px"
	 viewBox="0 0 614.3 446.4" style="enable-background:new 0 0 614.3 446.4;" xml:space="preserve">
<style type="text/css">
	.st0{fill:none;stroke:#FFFFFF;stroke-miterlimit:10;}
	.st1{fill:#5C7EE5;fill-opacity:0.5;stroke:#5C7EE5;stroke-miterlimit:10;}
	.st2{fill:#E5E55C;fill-opacity:0.5;stroke:#E5E55C;stroke-miterlimit:10;}
	.st3{fill:#E57373;fill-opacity:0.7;stroke:#E57373;stroke-miterlimit:10;}
</style>
<line class="st0" x1="418.8" y1="31.2" x2="197.1" y2="415.2"/>
<line class="st0" x1="308" y1="223.2" x2="86.3" y2="223.2"/>
<polyline class="st1" points="222.2,371.2 0.5,371.2 0.5,371.6 172,74.7 393.7,74.7 222.2,371.6 "/>
<line class="st0" x1="308" y1="1.5" x2="308" y2="444.9"/>
<rect x="54.3" y="205.9" class="st2" width="221.7" height="73.2"/>
<polyline class="st3" points="393.7,0 393.7,149.7 222.5,446.3 222.5,446.4 222.5,296.7 222.2,296.9 393.5,0.3 "/>
<line class="st0" x1="529.7" y1="223.2" x2="308" y2="223.2"/>
<polyline class="st2" points="530.1,199.6 308.4,199.6 308,199.6 391.8,54.5 613.5,54.5 529.7,199.6 "/>
<rect x="308" y="147.8" class="st1" width="221.7" height="150.7"/>
<polyline class="st2" points="446.4,419.6 224.6,419.6 224.2,419.6 308,274.5 529.7,274.5 445.9,419.6 "/>
</svg>
