<?xml version="1.0" encoding="utf-8"?>
<!-- Generator: Adobe Illustrator 19.2.1, SVG Export Plug-In . SVG Version: 6.00 Build 0)  -->
<svg version="1.1" xmlns="http://www.w3.org/2000/svg" xmlns:xlink="http://www.w3.org/1999/xlink" x="0px" y="0px"
	 viewBox="0 0 800.5 535.6" style="enable-background:new 0 0 800.5 535.6;" xml:space="preserve">
<style type="text/css">
	.st0{fill:#E5E55C;}
	.st1{fill:#5C7EE5;}
	.st2{fill:#E57373;}
	.st3{fill:#FFFFFF;}
	.st4{opacity:0.5;fill:none;stroke:#FFFFFF;stroke-width:3;stroke-miterlimit:10;}
	.st5{opacity:0.5;fill:none;stroke:#FFFFFF;stroke-miterlimit:10;}
	.st6{opacity:0.5;fill:none;stroke:#FFFFFF;stroke-width:2;stroke-miterlimit:10;}
</style>
<g id="Layer_1">
	<circle class="st0" cx="157.5" cy="221.9" r="32.5"/>
	<circle class="st0" cx="637.5" cy="221.9" r="32.5"/>
	<circle class="st1" cx="37.5" cy="411.5" r="32.5"/>
	<circle class="st1" cx="277.5" cy="411.5" r="32.5"/>
	<circle class="st1" cx="757.5" cy="411.5" r="32.5"/>
	<circle class="st1" cx="517.5" cy="411.5" r="32.5"/>
	<circle class="st2" cx="397.2" cy="32.5" r="32.5"/>
</g>
<g id="Numbers">
	<g>
		<path class="st3" d="M621.9,230.9h5.3V214H623v-1.9c2.1-0.4,3.6-0.9,4.9-1.7h2.3v20.5h4.8v2.4h-13V230.9z"/>
		<path class="st3" d="M639.4,228.6c1.4,1.4,3.2,2.7,5.9,2.7c2.8,0,4.8-1.7,4.8-4.2c0-2.7-1.9-4.6-7.3-4.6v-2.3
			c4.9,0,6.5-1.9,6.5-4.3c0-2.2-1.5-3.6-4-3.6c-1.9,0-3.5,1-4.9,2.3l-1.6-1.9c1.8-1.7,3.9-2.9,6.6-2.9c4,0,6.9,2.1,6.9,5.8
			c0,2.8-1.7,4.5-4.2,5.5v0.1c2.8,0.6,5,2.7,5,5.8c0,4.1-3.3,6.6-7.6,6.6c-3.7,0-6-1.5-7.6-3.2L639.4,228.6z"/>
	</g>
	<g>
		<path class="st3" d="M741.5,420.6h5.3v-16.9h-4.2v-1.9c2.1-0.4,3.6-0.9,4.9-1.7h2.3v20.5h4.8v2.4h-13V420.6z"/>
		<path class="st3" d="M773.5,416.7h-3.1v6.3h-2.8v-6.3h-10.3v-1.9L767,400h3.3v14.3h3.1V416.7z M767.5,414.3v-6.7
			c0-1.2,0.1-3.2,0.2-4.4h-0.1c-0.6,1.1-1.2,2.1-1.9,3.2l-5.4,7.8H767.5z"/>
	</g>
	<g>
		<path class="st3" d="M501.8,420.6h5.3v-16.9h-4.2v-1.9c2.1-0.4,3.6-0.9,4.9-1.7h2.3v20.5h4.8v2.4h-13V420.6z"/>
		<path class="st3" d="M518.4,411.4c0-7.7,2.8-11.8,7.4-11.8c4.6,0,7.3,4.1,7.3,11.8s-2.8,12-7.3,12
			C521.2,423.4,518.4,419.1,518.4,411.4z M530.3,411.4c0-6.7-1.8-9.5-4.5-9.5c-2.7,0-4.5,2.7-4.5,9.5s1.8,9.6,4.5,9.6
			C528.5,421.1,530.3,418.2,530.3,411.4z"/>
	</g>
	<g>
		<path class="st3" d="M162.8,214.3c-0.9-1.1-2.3-1.8-3.8-1.8c-3.2,0-5.9,2.5-6,9.8c1.4-1.8,3.5-2.9,5.4-2.9c4,0,6.6,2.4,6.6,7.1
			c0,4.4-3.1,7.4-6.8,7.4c-4.5,0-7.9-3.7-7.9-11.1c0-9.2,4.2-12.8,8.7-12.8c2.5,0,4.2,1,5.5,2.4L162.8,214.3z M162,226.4
			c0-3-1.4-4.9-4.2-4.9c-1.4,0-3.2,0.9-4.8,3c0.4,4.5,2.1,6.9,5,6.9C160.3,231.5,162,229.5,162,226.4z"/>
	</g>
	<g>
		<path class="st3" d="M274.3,410.9v-0.1c-1.7-1.2-3.2-2.9-3.2-5.3c0-3.5,2.8-5.9,6.5-5.9c4,0,6.5,2.6,6.5,6.1
			c0,2.4-1.8,4.5-3.2,5.5v0.1c2.1,1.2,4,2.8,4,5.9c0,3.4-3,6.1-7.4,6.1c-4.3,0-7.5-2.7-7.5-6.3C270,414.1,272.2,412.1,274.3,410.9z
			 M277.6,421.2c2.7,0,4.5-1.7,4.5-4c0-3-2.9-4-6.2-5.4c-1.8,1.2-3.2,2.9-3.2,5C272.7,419.4,274.8,421.2,277.6,421.2z M281.6,405.9
			c0-2.3-1.5-4.1-4-4.1c-2.1,0-3.7,1.5-3.7,3.7c0,2.7,2.5,3.9,5.3,5C280.7,409.1,281.6,407.6,281.6,405.9z"/>
	</g>
	<g>
		<path class="st3" d="M45.6,416.7h-3.1v6.3h-2.8v-6.3H29.4v-1.9l9.8-14.7h3.3v14.3h3.1V416.7z M39.7,414.3v-6.7
			c0-1.2,0.1-3.2,0.2-4.4h-0.1c-0.6,1.1-1.2,2.1-1.9,3.2l-5.4,7.8H39.7z"/>
	</g>
	<g>
		<path class="st3" d="M391.9,40.1c0.9,1.1,2.3,1.8,3.8,1.8c3.2,0,6-2.5,6.1-9.9c-1.4,1.8-3.5,3-5.4,3c-4,0-6.5-2.4-6.5-7.1
			c0-4.4,3.1-7.4,6.8-7.4c4.5,0,7.9,3.7,7.9,11.1c0,9.2-4.2,12.8-8.7,12.8c-2.4,0-4.3-1-5.5-2.4L391.9,40.1z M401.7,29.8
			c-0.4-4.5-2.2-6.8-5.1-6.8c-2.2,0-4,2-4,5c0,3,1.4,4.9,4.2,4.9C398.4,32.8,400.2,32,401.7,29.8z"/>
	</g>
</g>
<g id="Lines">
	<line class="st4" x1="372" y1="52.4" x2="183" y2="201.8"/>
	<line class="st4" x1="423" y1="52.4" x2="612" y2="201.8"/>
	<line class="st4" x1="140.1" y1="249.4" x2="54.9" y2="384.1"/>
	<line class="st4" x1="174.9" y1="249.4" x2="260.1" y2="384.1"/>
	<line class="st4" x1="620.1" y1="249.4" x2="534.9" y2="384.1"/>
	<line class="st4" x1="654.9" y1="249.4" x2="740.1" y2="384.1"/>
</g>
<g id="Number_line">
	<line class="st5" x1="733.9" y1="495.8" x2="733.9" y2="513.8"/>
	<line class="st5" x1="677.8" y1="495.8" x2="677.8" y2="513.8"/>
	<line class="st5" x1="621.8" y1="495.8" x2="621.8" y2="513.8"/>
	<line class="st5" x1="565.7" y1="495.8" x2="565.7" y2="513.8"/>
	<line class="st5" x1="509.6" y1="495.8" x2="509.6" y2="513.8"/>
	<line class="st5" x1="453.6" y1="495.8" x2="453.6" y2="513.8"/>
	<line class="st5" x1="397.5" y1="495.8" x2="397.5" y2="513.8"/>
	<line class="st5" x1="341.4" y1="495.8" x2="341.4" y2="513.8"/>
	<line class="st5" x1="285.3" y1="495.8" x2="285.3" y2="513.8"/>
	<line class="st6" x1="5" y1="504.8" x2="790" y2="504.8"/>
	<line class="st5" x1="229.3" y1="495.8" x2="229.3" y2="513.8"/>
	<line class="st5" x1="173.2" y1="495.8" x2="173.2" y2="513.8"/>
	<line class="st5" x1="117.1" y1="495.8" x2="117.1" y2="513.8"/>
	<line class="st5" x1="61.1" y1="495.8" x2="61.1" y2="513.8"/>
	<line class="st5" x1="790" y1="496" x2="790" y2="514"/>
	<line class="st5" x1="5" y1="495.8" x2="5" y2="513.8"/>
	<g>
		<path class="st3" d="M0.1,534.3c4.6-4.6,7.2-7.3,7.2-9.8c0-1.8-1-3-2.9-3c-1.3,0-2.4,0.8-3.3,1.8L0,522.2c1.3-1.4,2.6-2.3,4.6-2.3
			c2.8,0,4.6,1.8,4.6,4.5c0,2.9-2.6,5.7-6.2,9.5c0.8-0.1,1.8-0.1,2.6-0.1H10v1.7H0.1V534.3z"/>
	</g>
	<g>
		<path class="st3" d="M779.5,533.7h3.5v-11.3h-2.8v-1.3c1.4-0.2,2.4-0.6,3.2-1.1h1.5v13.7h3.2v1.6h-8.6V533.7z"/>
		<path class="st3" d="M799.1,522.6c-0.6-0.7-1.6-1.2-2.5-1.2c-2.1,0-3.9,1.7-4,6.5c1-1.2,2.3-1.9,3.6-1.9c2.6,0,4.4,1.6,4.4,4.7
			c0,2.9-2.1,4.9-4.5,4.9c-3,0-5.3-2.4-5.3-7.4c0-6.1,2.8-8.5,5.8-8.5c1.7,0,2.8,0.7,3.7,1.6L799.1,522.6z M798.6,530.7
			c0-2-0.9-3.2-2.8-3.2c-1,0-2.2,0.6-3.2,2c0.2,3,1.4,4.6,3.4,4.6C797.5,534.1,798.6,532.7,798.6,530.7z"/>
	</g>
</g>
<g id="Dots">
	<circle class="st1" cx="117.1" cy="504.8" r="5.8"/>
	<circle class="st0" cx="229.3" cy="504.8" r="5.8"/>
	<circle class="st1" cx="341.4" cy="504.8" r="5.8"/>
	<circle class="st2" cx="397.6" cy="504.8" r="5.8"/>
	<circle class="st1" cx="453.6" cy="504.8" r="5.8"/>
	<circle class="st0" cx="621.9" cy="504.8" r="5.8"/>
	<circle class="st1" cx="678.2" cy="504.8" r="5.8"/>
</g>
</svg>
